/* XPM */
static char *eas1696768973[] = {
/* columns rows colors chars-per-pixel */
"64 64 242 2 ",
"   c #3E231B",
".  c #3C2B24",
"X  c #362825",
"o  c #3C322A",
"O  c #3F3530",
"+  c #452C1E",
"@  c #432C24",
"#  c #4A2D23",
"$  c #432E28",
"%  c #453125",
"&  c #4C3324",
"*  c #44332B",
"=  c #4B342B",
"-  c #4C392D",
";  c #52352B",
":  c #543A2C",
">  c #5B3A2D",
",  c #553825",
"<  c #4C3A32",
"1  c #473833",
"2  c #543D33",
"3  c #5B3E33",
"4  c #512F24",
"5  c #5C422C",
"6  c #4D403A",
"7  c #554135",
"8  c #5B4335",
"9  c #55443B",
"0  c #5B453A",
"q  c #5D493D",
"w  c #57493C",
"e  c #61432D",
"r  c #624533",
"t  c #6B4B35",
"y  c #62463B",
"u  c #644A3C",
"i  c #6A4C3C",
"p  c #674633",
"a  c #6E513E",
"s  c #76533C",
"d  c #724F3F",
"f  c #5C4B43",
"g  c #5B4A45",
"h  c #5E544C",
"j  c #535148",
"k  c #4A4845",
"l  c #634D43",
"z  c #6A4E42",
"x  c #634E48",
"c  c #764F44",
"v  c #645144",
"b  c #6C5344",
"n  c #6E5947",
"m  c #65534B",
"M  c #6B554A",
"N  c #6C594D",
"B  c #67584D",
"V  c #725445",
"C  c #725946",
"Z  c #73564A",
"A  c #7C564B",
"S  c #745A4C",
"D  c #7B5C4C",
"F  c #7B5945",
"G  c #6D5C52",
"H  c #695752",
"J  c #745D53",
"K  c #7B5E52",
"L  c #735954",
"P  c #76614E",
"I  c #7D614E",
"U  c #7A6147",
"Y  c #6F615B",
"T  c #746155",
"R  c #7C6354",
"E  c #75635B",
"W  c #7C655A",
"Q  c #7D695B",
"!  c #7D6956",
"~  c #7D6C63",
"^  c #7A6861",
"/  c #815C45",
"(  c #845E4B",
")  c #885E48",
"_  c #825E53",
"`  c #84624D",
"'  c #8D654E",
"]  c #8A674C",
"[  c #91654D",
"{  c #976B4C",
"}  c #836454",
"|  c #8A6655",
" . c #846955",
".. c #8B6A55",
"X. c #83655A",
"o. c #836B5C",
"O. c #8B6C5B",
"+. c #886659",
"@. c #946C53",
"#. c #9B6D53",
"$. c #936E5A",
"%. c #9B6E5A",
"&. c #926755",
"*. c #8C715D",
"=. c #86705C",
"-. c #9C7255",
";. c #93725C",
":. c #9C745C",
">. c #9D795E",
",. c #967056",
"<. c #A37455",
"1. c #A2755C",
"2. c #A47A5D",
"3. c #AB7B5C",
"4. c #A97456",
"5. c #B27D5C",
"6. c #B07856",
"7. c #A2744E",
"8. c #846D62",
"9. c #8B6E61",
"0. c #8A6F6A",
"q. c #926E63",
"w. c #857264",
"e. c #8D7363",
"r. c #84736A",
"t. c #8C756B",
"y. c #8D7A6C",
"u. c #8C7964",
"i. c #947563",
"p. c #9A7563",
"a. c #947966",
"s. c #9C7A65",
"d. c #947669",
"f. c #947B6C",
"g. c #9B7D6B",
"h. c #8C7B71",
"j. c #947D73",
"k. c #9B7E72",
"l. c #A27763",
"z. c #A47C64",
"x. c #AA7D64",
"c. c #A27D6B",
"v. c #AB7E6A",
"b. c #A47765",
"n. c #B47D63",
"m. c #B37A67",
"M. c #A37E71",
"N. c #AF805C",
"B. c #9D826D",
"V. c #99826A",
"C. c #958274",
"Z. c #9C8374",
"A. c #9C8975",
"S. c #9C867A",
"D. c #9B8A7B",
"F. c #A58166",
"G. c #AB8265",
"H. c #A4826C",
"J. c #AB846C",
"K. c #AD896E",
"L. c #AB8869",
"P. c #B28365",
"I. c #B98765",
"U. c #B3856B",
"Y. c #B48A6D",
"T. c #BC8B6C",
"R. c #BA8867",
"E. c #A48573",
"W. c #AB8573",
"Q. c #A58974",
"!. c #AC8A74",
"~. c #A48779",
"^. c #A48C7B",
"/. c #AB8C7A",
"(. c #B38473",
"). c #B38C73",
"_. c #BA8D73",
"`. c #B38D79",
"'. c #B98A77",
"]. c #AC917D",
"[. c #AB9179",
"{. c #B59176",
"}. c #BC9175",
"|. c #B4937C",
" X c #BB947B",
".X c #BC997E",
"XX c #B1997D",
"oX c #B4926E",
"OX c #C18C6E",
"+X c #C39475",
"@X c #C2957B",
"#X c #C49B7D",
"$X c #CC9D7C",
"%X c #C29076",
"&X c #9C8A83",
"*X c #A48E81",
"=X c #AE8E82",
"-X c #B18E84",
";X c #A49183",
":X c #AC9383",
">X c #AC958A",
",X c #AC9A8C",
"<X c #AC9A86",
"1X c #B39582",
"2X c #BB9682",
"3X c #B49A84",
"4X c #BC9A83",
"5X c #B49B8B",
"6X c #BB9D8A",
"7X c #B0978B",
"8X c #B29D91",
"9X c #AD9E94",
"0X c #BEA085",
"qX c #BDA28D",
"wX c #B5A28E",
"eX c #BCA493",
"rX c #B9A697",
"tX c #AFA08F",
"yX c #B7A5A0",
"uX c #C29C83",
"iX c #C29E89",
"pX c #C69882",
"aX c #D09883",
"sX c #C4A185",
"dX c #CAA286",
"fX c #C3A38C",
"gX c #CAA58B",
"hX c #C6A98F",
"jX c #D4A688",
"kX c #C3A593",
"lX c #C4AA95",
"zX c #CBAA93",
"xX c #C4AB9A",
"cX c #CAAE9B",
"vX c #D3AD97",
"bX c #CBB29C",
"nX c #C7B197",
"mX c #D4B39B",
"MX c #CAB5A3",
"NX c #C7B5A6",
"BX c #D2BAA7",
"VX c #CCAFA6",
/* pixels */
"H.i.E.e.A.w.e.! ! S f.t.o.Z.f.r.J /.Q.s.s.Q.c.g./.|.p.c.G ;Xs.Q E o.d.Q.c./.W.a.H.M 7Xe.B.s.z.).|.)..X6XiX/.8 E.W.i.c.c.i.s.s./.",
"v.c.i.9.E.=.S I R o.X.e.X.*.X.t.V Q._.x.2.(.'.l.x.%.J.p.m ~.V.! D  .$.:.@.@.p.x.p.l ^.]./.s.2.3.G.3.3.z.T.|.y z.(.x.[ l.x.1.%.2.",
"p.`.E.} ! R P n R b M R S P S O.S b.:.G.l.x.U.v.'.%.v.`.M i.D R K } i.`.c.v.%.H.|.M o.+.g.E.c.z.G.1.R.v.Y..Xr 1.2.J.J.z.1.[ U.b.",
"W.k.k.E C.T ~ Q T B l q 8 M b J M  .i.a.E.c./.=X~./.E.k.H j.O.E ~ W f.eX2X/.~.g.Z.f C.! ! e.X.B.s.b.z.E.J.`.0 | O.p.c.W.6XkX~.E.",
"2 3 w 7 f f h v w * x m v M v w l y y q l 0 - f 2 9 < 8 9 2 z h h h f w 0 0 3 2 3 k 9 x v f h - i i r q t r 9 r r y z 0 2 l 0 7 ",
"K X. .B.3X5X6X/.:Xb 6XgXsX4X2X).b.x.z.oXI.W.M 9.+.K } X.9.1X4XkX/.:XQ.I o.X.X.X.X.e.1X6XqXE.:XC ;.P.-.2.G.>.s.l.b.`.(.(.} 9.} K ",
"X.X.$.$.H.;.g.H./.V fXdXvXgXY.l.x.n.U.}.T.W.M } X.} } +.i.c.H.;.H.H.].S +.+.R _ X.i.H.>.;.[.E.n 4X3.J.x.Y.).G.v.(.1.@.m.+.o.X.O.",
"_ p.$...V.K.E.E.s.M c.<.I.+X#X$XU._.@Xx.P.`.M C K K X.p.| ..J.L.Q.c.H.b S K R 9.i.$...Q.F.K.g.b lXgX X X'.@XY.@X_.x.1.`. .b K R ",
"| ..O.$.*.s.*.V.H.N |.G.4.G.}.p.L..X1.l.`.2XN S C I R a. .V.;.>.s.E./.V S S } ! i...p.;.;.V.B.b 3XXXqX{.L.>..X#X:.J.J.4Xe.T Z P ",
"& , & : 8 5 , , 5 # p t t e t p t e p t > V + # + & : & & 8 5 5 > : 7 + # & : ; # ; 8 5 , , 5 + u r r 5 5 5 5 5 e e 5 r - % @ & ",
"cXrXrXw.Q.].[.].3XQ.s.p.j.:X1X/.u.MXnXbXBXxXxXMXcXxXlXrX=.<XbXrXbXcXeXNXMXxXxXxXrXW Z.:X/.B.B.~./.f.XX<X].<Xv rXnXbXBXcXrXNXMXxX",
"0XfXrX=.B.F.Y.s.!.J.H.s.H.b.H.B. .hXzXBXMXnX#X4XgX6XfXqX=.C.lXfXmXzXxX].6XkX1XqXkXR E.g.`.H.s.;.H.{.[..XQ.A.a .XfXzXmXbX6X XkXeX",
").).=XO.!.|.F.>.H.v..X.X`.(.c.A.=.0XzXbXbXhX#XzXgXuXuX.XX.g.p.%.N.>.z..XdXuXY.:.{.D H.K.(.}.sX.Xs.F.L.F.{.0Xu Y.z.J.K.F.}.#XgXfX",
"fXH.-X9.{.W.H.E.;.g.H.H.H.b.W.Q. .B.L.!.Q..XH.H.!.[.2X|.+.f.s.1.{ >.L.:.:.z.J.Y.K.S ~./.H.!.qXlXfXqXH.K.].[.a V. X{.F.K.K.F.`.2X",
"T C M z  .I ` D D K ` / ] ` ` } V ] / { ..] ` D I `  . .x Q  ...=.I  .V i b Z K V 1 m K b W r.y.r.~ Q ~ w.~ * T Q C a I P N M a ",
"y.u.w.f.XX~.E.;.Q.b ].sX{. X{.W.z.@.1.x.Y.B.i *.*.....U Q V.XXkX<X:XZ.M Q K t.8.J E J T R Q ~ B C.h.~ T T G E ^ Q } } I W r.r.C.",
"Q  .X.+.H.a.V.Q.V.a qXdXvXsXY.U.2.4.U.%Xn.W.u O.a.B.Q.s.a./.K.H.`.g.`.c _  .| | i.*.| p.2.s.*.i V.D a C } $. .} z..XU.J.+.o.S  .",
"R } } ;.l.K.H.L.s.v L.3.}.dX.XOXx.3.'.T.n.(.8 } g.E.g.H.z.$.F.z.L.g.c.Z D } } *.s.s.;.H.x.Y.] t a.;.` S d.M.s.s.J.U.T.pX+.Q 9.$.",
"K K R s.i.g.s.g.E.J {.P.P.(.+XP.n.aXv.#._.`.l Z O.} } O.O.i.i.i.V.H.^.S _ } +. .*.O.( ` H.W.y q C.g.S Z X.X.R }  .H.).4Xt.J K | ",
"q w 9 b z i i u b : V / F i I C ..D b ` V Q . 8 7 8 q 0 V D S i u C O.2 < 2 8 8 8 f l i y y f < m q 8 2 - - l 9 2 V b X.f 7 2 3 ",
"A.A.C.N e.i.9.e.d.w.R ` } 9.y.u.T S.Z./.E.j.D.Z.Z.Z.Z.f.T 9.d.0.o.d.C.Z.S.S.^.S.V.v 8.f.9. .O...*.+.e.i.w.r.q Z.S.^.*XZ.Z.D.^.A.",
"fXlXwXO.B.E.|.E.`.g.s.} p.c.(.c.| vXcXxXBXxX5XlXlXqXlXcXo.Z.g.:XE./.~.1XxXlXqXhXxXT S.k./.H.z.1.{. X/.4X:X*Xv qXxXbXBXcX6XfXzXxX",
"2.H.3XO.W.|.W.s.H.).|.2X`.W.p.E.*.1XiXfXkXqXsXhXfXfXqX1X+.E./.6Xv.q.J. XfXfXQ.H..XQ E.~.`./.|.!.L.~. X`.!.5XC L.{.|.fXuX}.U.#XgX",
"F.H.1Xe.].W.H.H.q.c.c.(.v.v.H.E.;.c.J..XuX2X4X.X|.].6X[.+.B.|./.f.b.1.l.2.{.V.F.{.W E.[.H.F.K.K.{./.H.W.!./.D x.z.-.2.F.z.J.x.pX",
"V.g.f.T S.f.d.d.k.k.a.$.p.;.i.u.R B.e.V.y.C.y.i.f.j.*Xj.S t.C.t.f.k.f.q.i.d.Z./.d.x j.Z.g.f.3X~.C.eX^.5X5X,Xl c.*.B.e.C.e.e.p.g.",
"b z b M z i V Z Z = f z M m f q 9 7 f w w 9 * 8 8 z M S M z z V V Z M < N y Z b i M x z c V x = H H x w 7 6 9 k g w q w - 0 y y ",
"1.2.2.U.P.2.1.L.{.f r.=.o.8.9.e.K K R D ! X.i %.@.%.:.2.(.(.v.1.4.'.XXI s.@.%.%.x.Y.G.3.<.1.;.y Z.| K K E J J R ! R R 8.b p.:.&.",
"3.5.N.6.6.5.R.T.$XM o. .W Z A K S _ t i C D b x.<.3.5.5.5.4.5.5.R.+X.X/ z.4.G.3.N.5.4.5.3.T.) r +.' A z M X.A i D Z i R i c.3.4.",
").(.(.OXR.pXpX{.0XM C F D S K M K D } K T f M E.`.'.(.'.'._.'.jX$X{.4X/ K.K.).U.(.T.}._.aX XiXH >XM.( S T u M ^ L K ^ B u c.).(.",
"`.(.1X`.}.). XuXXXq x x M J R J E J E E E G x p.s.c.`.). X'. X'. X{.|.d :.2.K.).'.'. X}.'.2X=XL t.9.! J m G ! L E E E E f d.g.b.",
"; ; $ # 3 : 3 3 ; & $ = @ = # * = $ $ @ = = # = : : : = . # ; & = - = = = # # # #   ; > > 3 3 = ; # @ # @ @ @ . @ . % % % = = ; ",
"/.1X&X0.W.`.p.c.W.c.J.(.2X XuXE.S.1X/.E.Q.6X1X=X~.Z.=X>XG E W L B B E M J L L Q W 0 ~.|.E.c.b.;.b.(.2X4X4X5XX.2X/.~.~.XXwXXXA.A.",
"`.'.a.` n.P.P.G.I.U.G.G.P.Y.Y.-X/.4X|.sXvXzX`.W.|.|.J.Q.S K A / S ( S D F } | D A r H.P.R.n.G.z.J.U.Y.Y..X/.9.6XXX{.XXJ.z.W.|.|.",
"L.}.c.;.I.5.T.T.R.+XR.G.G.U.uX1XE.uX6X!.J.|.{.W.).L.).K.F _ / s ( / ) | ) ( / / ( p _.P.5._.Y.!.L.x.U.T.T./.o.4XfX4XK.2.v.).|.J.",
"3X4XC.+.). XK.K.L.!.gXsX.X}.{.6Xf.lXlXvX4XQ.iX6X6X4X:X3XD R D } D D _ } +.O.} } } w /.'.'.Y.'.H.z.(.@XR.I.].W hXqXlX6X[.6XfXfX6X",
"w.8.G B u. .O.o.=.o.w.=.e.d.u.Q E j.Z.d.t.d.h.t.r.w.w.8.3 b m z u z u x M M x z u * r.9.O.| O.W o.! D O.O.! l y.V.y.e.a.r.j.e.8.",
"M Q ! Q =. .} }  .8 T N ! i Z q Q T T  .W 0.k 8.o.! S R K o.e.K X.Q o.b W 8.z K ! W o.=.} } O.0 Q o.R R  .} K N Q Q Q O.x X.X.W ",
"|.!.fX!.0X|.l. X4XM C.[.^.Q. .s.*.Q.Z.V.E.j.3 O.a./.|.4X4X2X6X2X$.2X1XF p.c.-X`.sX{.4X6X!.:.!.Z a.B.^.d.g.Z.O.^.k.k.Z.d.L O.p.E.",
".X{. X).H.F.}.U.K.S V.f.E.3XXX*.XXE.B.g.g.f.9 $.$.F..Xz.G.x.:.J.'.F.|.F @.-.'.}.G.G.L.-.J.Y.l.Z i.s.g.XXA.B.1XE.E.E.c.f.L O.%.b.",
"@.>.F.2.{ {.}.G.>.S f.f.a.A.XX[.O.H.p.V V J 9 @.' [ :.%.2.#.2.#.Y.K.s.( @.' [ 1.-.<.{ :.-. XH.V R | D V  .s.E.i.a.s.O.X.x | [ &.",
"` @...s.G.!.z.l.4XC *X/.` R C.D. .S c p > b < _ ` ( ' :.@.z.z. Xc.{.6XV / / [ ] -.{ G.L.{.s.1XL d.I ` V I  . .] s t , u f ` ] / ",
"b M B h T l 3 w w 9 l m B v B h 9 v M M N B v m M l M m 9 G G 0 w y 8 b n M l N v 7 T N 8 w b M M N N G M m 1 v h v B H h N N f ",
"J.s.s.9.^.w.T W r.w.y.C.S.S.j.0.T =XH.J.v.p.H.J.uXW.s.M.M 7Xk.0.K 8.! i.K. XL.l.z.m ;Xw.o.].}.G.G.@XuXzX#X{.i !.H.H.!.!.J.J. X X",
"H.s.k.e.^.=.o.Q !  .u.A.Z.Z.e.w.S XX`.b.p.%.$.$.| p.E.E.C ^.d.g.q.i.s.:.( %.$.c.B.b :Xg.| i.z.:.@.x.v.c.J.XXq W.!.:.:.`.`.E.:.p.",
"a./.C.Q =. .C a P =.=.f.=.R P w.b z.W.M.p.W.b.d.H.p.E.E.v u.!  . .$.| / ( p.b.k.E.z *.` } O.d.i.&.l.v.W.`.1X9 q.c.M.p.E.E.i./.c.",
"x.l.E.+.*.R Q Q T J N q u z c K Z q.[ z.x.U.}.v.l.F.l.(.K B.+.+.Q W R C %.1.J.z.!.N j.o.R } ` >.3.<.x.v.n.@Xe #.#.2.(.Y.'.'.Y.J.",
"* - < o * . * o X . . * o = * X . = - = - - < 2 = * - - * o o % O o o X = = * 1 1 o * . $ * o * : = ; < > ; X $ = - < < < 9 = = ",
"W Q ! V.<X3X5X:X/.b 3XfX|.3X3X~.g.b.p./.J.B.h 0.o.! R T O.D.<XqX:X:X~.W 8.o.R R R 9.^.6X5X^.,XM g.v.p.p.M.p.p.p.p.W.(.c.X.r.o.Q ",
"_ X.$.B.[.H.Q.V.[.V gXdXvXsXT.P.n.4.m.pX4.M.g O.+.D  . .;.].Q.V./.g.1X_ *.} } }  .a.|.H.H.E.Z.R !.#.H.J.x.U.v.G.J.J.%.x.9.9.} W ",
"X.i...] V.F.K.L.s.i s.2.I.sXsX.XJ.l.OX%Xm.'.f Z R } +.;.*...K.H.W.c.k.b S K D 9.9.$.$.E.L.W.g.b cXvXW.2X X@XP.'.).:.@.'.W Z D } ",
" ...;.*.;.H.s.E.!.C |.K.z.).'.v.m.aXn.%.'.`.g Z D X.+.d.+.p.i.s.H.E.-XS D D R X.i.+.i.z.p.H.E.M 6X`.kX).`.v.'.pXl.(.(.pXo.L S K ",
"y y y b u i i a a - D F F c  .D  .( d } / +.$ 3 8 0 0 8 z b b i z z H = 3 3 z 8 y z M z u i b = o.X.q.X.S M O.D s / / | f 0 2 8 ",
"<X;X;XJ *XC.S.^.D.D.j.d.;.Z.S.A.Q tX<XyX8X].,X7X5X7X:X>X^ r.*XS.Z.*X^.>X,X7X5X>X*XL j.S.Z.i.i.f.h.9.s.k.j.&XE >X,XtXwX].,X,X8X>X",
"3X4XtX^ j./. XE.;XC.Z.k.d.g.E.S.8.vXnXBXMXcX5XeXxXeXeXcXC./.B.C.S.1X1X<XrXlXeXkXxXE Z.g.Q.H.s.i.W.!.!.5X5X*Xh eXxXMXBXnXeXkXzXkX",
"2.4.XX*.E. XG.x.eXc.{.pXpXJ.-.H.O.G.P.L. XJ.uXdXuX@X2.`.t.H.z.xXA.;.J..XdXdXY.z..XS H.G.).Y. X`.:.G.Y.XX!.|.Q :XH.|.|.(.T._._.5.",
"!.J.1Xo.6XE.z.6X*Xp.b.(.@XU.J.E.*.2.N.{ -.P.1.c.c.g.H.!.w.Z./.rXs.s.:.J.H.H.s.H.XXQ Q.H.E.L. XlXfX!.>.[.L.!.;XV.F.{ :.`.{.J.#.#.",
"B.:.i.P Z.S.f.y.r.j.f.9.M.d.d.t.Q k.g.E.s.g.i.;.a.s.Q.f.G h.Z.~ w.y.f.j.e.i.H.E.i.x a.f.f.f.rXrX9X6X7X9XtX,Xj h.a.d.d.f.i.O.:.:.",
"u y v v i  .S n M 1 h ~ H g g g 9 w 0 g f 9 $ 8 8 z z y ^ K i b S N T 0 8 3 z u y M z u a u q o G M x g S w k 6 7 M R g 1 9 8 r ",
">.7.2.L.6.2.N. X_.o.C.S t.i.O._ S X.R W o.K z #.#.#.<.3.b.(.OX2.3.4X[.` -.#.<.#.4.P.N.N.7.-...q f.| D L D u.r.K H.*.=.8.u p.<.{ ",
"x.Y.3.<.4.3.I.}.dXb o.o. .V O.V D r 3 b Z K V x.2.3.G.N.3.<.5.N.I.@XsX/ F.z.z.G.G.2.<.N.N.L.s t =.' ` V b.H.>.F.K.G.F.o.b b.2.2.",
"R.I.I.R.R.$X$X+X$XM N K R D I L M W R X.z w b U.R.+XP.T.I.OXR.$X$X}.#X/ U.oXT.I.OXR.T.OXjX%XiXS >Xc.} S X.O. .` O.W./.V 8 v._.T.",
"(.Y.#X}.}.).}.@X Xl B L L ! ! 8.^ T W Q J K y :.b.v. X'.}. X}.oX}.uX Xd ,.>.J.)._. X X_._.uX`.N 9.O.R Z M L o.Q b } K K y i.p.p.",
"i v a q ! b q 0 - < 1 9 q y 2 g 3 < : 3 u 8 u a a r i i l b ! b f 0 9 0 b c t i u y N K i 3 0 - 8 y y 0 7 9 = - & : 3 w 0 a a t ",
"Q.V.A.~ &Xr.T ~ r.r.h.S.~.C.S.0.R ].Q.E.Q.~.V.[.].[.B.Z.m *XC.W 8.t.X.~./.5X^.B.k.H ,Xh.T o.=. .Q.fX4XkXfX*Xu :XE.E.~.E.V.~.2X1X"
};
