/* XPM */
static char *fire1696766989[] = {
/* columns rows colors chars-per-pixel */
"64 64 244 2 ",
"   c #28200C",
".  c #2D2411",
"X  c #382C14",
"o  c #342B18",
"O  c #39301E",
"+  c #3D3625",
"@  c #403018",
"#  c #483818",
"$  c #543C1C",
"%  c #583D19",
"&  c #79371E",
"*  c #4F3F21",
"=  c #5B2822",
"-  c #623A36",
";  c #753531",
":  c #78451D",
">  c #63431E",
",  c #514124",
"<  c #5C4020",
"1  c #5C482C",
"2  c #564B34",
"3  c #624625",
"4  c #6C4824",
"5  c #674A2A",
"6  c #744C28",
"7  c #784825",
"8  c #77512D",
"9  c #654B33",
"0  c #7B5534",
"q  c #7D652F",
"w  c #6B5C46",
"e  c #7D5E41",
"r  c #6D4547",
"t  c #766B5A",
"y  c #72624C",
"u  c #6C6A6B",
"i  c #676566",
"p  c #797265",
"a  c #757475",
"s  c #787677",
"d  c #7C7B7B",
"f  c #797778",
"g  c #716F70",
"h  c #555044",
"j  c #893919",
"k  c #943B13",
"l  c #9B3912",
"z  c #933919",
"x  c #93360E",
"c  c #AB3F0B",
"v  c #A33E13",
"b  c #893B25",
"n  c #994516",
"m  c #914C15",
"M  c #AD4B0C",
"N  c #A9470A",
"B  c #B34B0D",
"V  c #BB4C0A",
"C  c #B74806",
"Z  c #AA530C",
"A  c #B5530D",
"S  c #BC540C",
"D  c #BC5A0D",
"F  c #AA4413",
"G  c #AC4B13",
"H  c #A3441A",
"J  c #A54B1B",
"K  c #A64913",
"L  c #B44E14",
"P  c #B74715",
"I  c #AA5517",
"U  c #BB5413",
"Y  c #BD5A14",
"T  c #B4531B",
"R  c #B65B1B",
"E  c #B85716",
"W  c #BD6114",
"Q  c #B8641A",
"!  c #B06816",
"~  c #874B24",
"^  c #9C4C22",
"/  c #9C4B2E",
"(  c #964D2B",
")  c #9D5B2C",
"_  c #984C35",
"`  c #87583A",
"'  c #905C34",
"]  c #995937",
"[  c #864D30",
"{  c #A44B22",
"}  c #A74927",
"|  c #B14E25",
" . c #A7542A",
".. c #B75925",
"X. c #A4573B",
"o. c #B55C35",
"O. c #AA4D34",
"+. c #986339",
"@. c #8D6032",
"#. c #BA6826",
"$. c #A86537",
"%. c #B96435",
"&. c #B16D2D",
"*. c #C24D0B",
"=. c #CA510A",
"-. c #C35B0B",
";. c #CA5B0B",
":. c #C55508",
">. c #D35D0B",
",. c #D75B0C",
"<. c #C14B13",
"1. c #C25513",
"2. c #C25C14",
"3. c #C85A17",
"4. c #D75B1C",
"5. c #D84F09",
"6. c #C9660B",
"7. c #D3620B",
"8. c #D46A0C",
"9. c #DA6A0B",
"0. c #DE770D",
"q. c #C46314",
"w. c #CB6413",
"e. c #CB6C14",
"r. c #C2641B",
"t. c #C4691A",
"y. c #C86A19",
"u. c #D66B12",
"i. c #D86A16",
"p. c #CD7619",
"a. c #D47313",
"s. c #DB7314",
"d. c #D3731C",
"f. c #DA791A",
"g. c #E56E0D",
"h. c #E7760E",
"j. c #E57313",
"k. c #E47B11",
"l. c #E1751C",
"z. c #E87A17",
"x. c #F17C15",
"c. c #EC6618",
"v. c #CB5229",
"b. c #C96627",
"n. c #D66B26",
"m. c #C97524",
"M. c #C77329",
"N. c #D77628",
"B. c #CC6C39",
"V. c #CA7839",
"C. c #D57637",
"Z. c #E57D25",
"A. c #E1520F",
"S. c #995947",
"D. c #82514F",
"F. c #A75B48",
"G. c #A05A52",
"H. c #87634A",
"J. c #9A6645",
"K. c #9A6F55",
"L. c #8C715A",
"P. c #AB6649",
"I. c #B36544",
"U. c #B87449",
"Y. c #A76A55",
"T. c #B97757",
"R. c #AD725D",
"E. c #996B63",
"W. c #847769",
"Q. c #857D7A",
"!. c #9C7672",
"~. c #A7746A",
"^. c #B37A68",
"/. c #AB7C77",
"(. c #C87748",
"). c #D17645",
"_. c #C87C57",
"`. c #CD734C",
"'. c #C27F68",
"]. c #CA831F",
"[. c #D98319",
"{. c #EC8313",
"}. c #E2831B",
"|. c #E98918",
" X c #F48716",
".X c #EB9519",
"XX c #F29315",
"oX c #F49C1A",
"OX c #F69918",
"+X c #E4820F",
"@X c #FAA21B",
"#X c #F3A11B",
"$X c #F9B11D",
"%X c #DB8925",
"&X c #D88338",
"*X c #CE892F",
"=X c #EA8822",
"-X c #EA9827",
";X c #F79D23",
":X c #EAA428",
">X c #F9A923",
",X c #EEB32C",
"<X c #F8B529",
"1X c #EEB037",
"2X c #FCC533",
"3X c #8B867C",
"4X c #9B8877",
"5X c #A78678",
"6X c #B88778",
"7X c #B68168",
"8X c #B28D54",
"9X c #C7835A",
"0X c #D48C4F",
"qX c #C88564",
"wX c #C38D7A",
"eX c #CB917A",
"rX c #FBD243",
"tX c #817F80",
"yX c #848384",
"uX c #8C8C8C",
"iX c #8B8884",
"pX c #948D88",
"aX c #949393",
"sX c #9B9996",
"dX c #9C9B9B",
"fX c #9B9492",
"gX c #95918E",
"hX c #AB8885",
"jX c #B19A93",
"kX c #A6A39F",
"lX c #A3A3A3",
"zX c #ABABAB",
"xX c #A9A8A6",
"cX c #B5AFAD",
"vX c #B3B3B3",
"bX c #BBBBBB",
"nX c #C49487",
"mX c #CC9C93",
"MX c #C9A593",
"NX c #C1B3B6",
"BX c #D1C0BD",
"VX c #E1C3B7",
"CX c #D2BEC1",
"ZX c #D7C9C6",
/* pixels */
"@ @ @ @ X @ @ @ @ @ @ @ @ @ @ @ O @ @ @ @ @ @ @ @ @ @ @ @ @ @ @ @ @ X @ @ @ @ @ @ @ @ @ @ @ @ @ @ @ @ @ @ @ @ @ @ @ @ @ @ @ @ @ ",
"4 4 4 4 4 4 4 4 4 4 4 4 4 4 4 4 4 4 4 4 4 4 4 4 4 4 4 4 4 4 4 4 4 4 4 4 4 4 4 4 4 4 4 4 4 4 4 4 4 4 4 4 4 4 4 4 4 4 4 4 4 4 4 4 ",
"' ' ' ' ' ' ' ' ' ' ' ' ' ' ' ' ' ' ' ' ' ' ' ' ' ' ' ' ' ' ' ' ' ' ' ' ' ' ' ' ' ' ' ' ' ' ' ' ' ' ' ' ' ' ' ' ' ' ' ' ' ' ' ' ",
"$ $ $ $ $ $ $ X $   X $ $ $ $ $ $ $ $ $ $ $ $ $ $ X $   X $ $ $ $ X $   X $ $ $ $ $ $ X $   X $ $ $ $ $ $ $ $ $ $ $ X $   X $ $ ",
"# # 4 6 6 6 6 $ '   $ ' < # # # # 6 6 # 4 # 4 # # $ '   $ ' 6 # 6 $ '   $ ' < # # # < $ '   $ ' # 6 # # 6 # 6 # 6 6 $ '   $ ' 4 ",
"# # 4 6 6 6 < $ '   $ ' 4 # # # $ 6 6 # 4 # 4 # # $ '   $ ' 6 # 6 $ '   $ ' 6 < # < 6 $ '   $ ' # 6 # # 6 # 6 # 4 6 $ '   $ ' 4 ",
"# # < 6 6 6 $ $ '   $ ' 6 $ # # $ 6 6 # 4 # 4 # # $ '   $ ' 4 # 6 $ '   $ ' 6 6 < 6 6 $ '   $ ' # 6 # # 6 # 6 # 6 6 $ '   $ ' 4 ",
"$ # $ 4 6 6 $ $ '   $ ' 6 $ # # < 6 4 # 4 # 4 # # $ '   $ ' 4 # 6 $ '   $ ' 6 6 6 6 6 $ '   $ ' # 6 # # 6 # 6 # 6 6 $ '   $ ' 4 ",
"4 # # < 6 < # $ '   $ ' 6 < # $ 4 6 4 # 4 # 4 # # $ '   $ ' 4 # 6 $ '   $ ' 6 6 6 6 6 $ '   $ ' # 6 # # 6 # 6 # 4 6 $ '   $ ' $ ",
"4 # $ # < $ # $ '   $ ' 6 4 # < 6 6 < # 4 # 4 # # $ '   $ ' < # 6 $ '   $ ' 6 6 6 6 6 $ '   $ ' # 6 # # 6 # 6 # 4 6 $ '   $ ' $ ",
"6 $ # # $ # # $ '   $ ' 6 6 < 4 6 6 < # 4 # 4 # # $ '   $ ' < # 6 $ '   $ ' 6 6 6 6 6 $ '   $ ' # 6 # # 6 # 6 # < 6 % '   $ ' $ ",
"6 $ # # # # $ $ '   $ ' 6 6 4 6 6 6 $ # 4 # 4 # # $ '   $ ' # # 6 $ '   $ ' 6 6 6 6 6 $ '   $ ' # 6 # # 6 # 6 # < 6 $ '   $ ' # ",
"4 6 # # # $ 6 $ '   $ ' 6 6 4 6 6 6 $ # 4 # 4 # # $ '   $ ' # < 6 $ '   $ ' 4 6 6 6 6 $ '   $ ' # 6 # # 6 # 6 $ # 6 $ '   $ ' # ",
"4 6 $ # # $ 6 $ '   $ ' 6 6 6 6 6 4 # # 4 # 4 # # $ '   $ ' # < 6 $ '   $ ' 4 6 6 6 4 $ '   $ ' # 6 # # 6 # 6 $ # 6 $ '   $ ' # ",
"< 6 6 # $ 6 6 $ '   $ ' 6 6 6 6 6 4 # # 4 # 4 # # $ '   $ ' # 6 6 $ '   $ ' < 6 6 6 4 $ '   $ ' # 6 # # 6 # 6 $ # 6 $ '   $ ' # ",
"$ 6 6 6 $ 6 < $ '   $ ' 4 6 6 6 6 4 # # 4 # 4 # # $ '   $ ] % 6 6 $ '   $ ' # 4 6 4 < $ '   $ ' # 4 # # 6 # 6 $ # 6 $ '   $ ' $ ",
"# 4 6 6 < 6 $ $ '   $ ' 4 6 6 6 6 < # # 4 # 4 # # $ '   $ ' % 6 4 $ '   $ ' # < 4 < # $ '   $ ' # 6 # # 6 # 6 < # 6 $ '   $ ' $ ",
"# 4 6 6 6 6 $ $ '   $ ' < 6 6 6 6 < # # 4 # 4 # # $ '   $ ' 6 6 4 $ '   $ ' # # < # # $ '   # ' # 6 # # 6 # 6 < # 4 $ '   $ ' $ ",
"# < 4 6 6 6 # $ '   $ ' < 6 6 6 6 $ # # 4 # 4 # # $ '   $ ' 6 6 < $ '   $ ' # # # # # $ '   $ ' # 6 # # 6 # 6 4 # 4 $ '   $ ' 4 ",
"# $ 4 6 6 < # $ '   $ ' $ 4 6 6 6 $ # $ 4 # 4 # # $ '   $ ' 6 4 < $ '   $ ' # # # # # $ '   $ ' # 6 # # 6 # 6 4 # 4 $ '   $ ' 4 ",
"# # < 6 6 $ # $ '   $ ' $ 4 6 6 4 # # $ 4 # 4 # # $ '   $ ' 6 4 # $ '   $ ' # # # # # $ '   $ ' # 6 # # 6 # 6 4 # 3 $ '   $ ' 4 ",
"# # $ 6 6 $ # $ '   $ ' # < 6 6 4 # # $ 4 # 4 # # $ '   $ ' 6 3 # $ '   $ ' < # # # < $ '   $ ' # 6 # # 6 # 6 6 # % $ '   $ ' 4 ",
"$ # $ % $ # # $ '   $ ' # < 6 6 < # # < 4 # 4 # # $ '   $ ' 4 # # $ '   $ ' 4 < # < 4 $ '   $ ' # 6 # # 6 # 4 6 # # $ '   $ ' 4 ",
"$ # # $ # # $ $ '   $ ' # $ 4 4 < # # < 4 # 4 # # $ '   $ ' % # # $ '   $ ' 6 4 < 4 6 $ '   $ ' # 6 # # 6 # 4 6 $ # $ '   $ ' 4 ",
"$ # # # # # $ $ '   $ ' # $ < < $ # # < < # 4 # # $ @.  $ ' # # # $ '   $ ' 6 6 4 6 6 $ '   $ ' # 6 # # 6 # < 6 $ # $ '   $ ' $ ",
"4 # # # # # 4 $ '   $ ' # # $ $ # # # 4 $ # 4 # # $ '   $ ' # # # $ '   $ ' 6 6 6 6 6 $ '   $ ' # 6 # # 6 # < 6 % # $ '   $ ] $ ",
"4 # # # # # 4 $ '   $ ' # # # # # # # 4 $ # 4 # # $ '   $ ' # # $ $ '   $ ' 6 6 6 6 6 $ '   $ ' # 4 # # 6 # $ 6 % # $ '   $ ' * ",
"4 $ # # # $ < $ '   $ ' # # # # # # $ 6 # # 4 # # $ '   $ ' # # $ $ '   $ ' 6 6 6 6 6 $ '   $ ' # 6 # # 6 # $ 6 6 $ $ '   $ ' # ",
"< $ # # # $ $ $ '   $ ' # # # # # # < 6 # # 4 # # $ '   $ ' # # < $ '   $ ' 4 6 6 6 6 $ '   $ ' # 6 # # 6 # $ 6 4 $ $ '   $ ' # ",
"$ 4 # # # 4 $ $ '   $ ' # # # # # # < 6 # # 4 # # $ '   $ ' # # 4 $ '   $ ' 4 6 6 6 6 $ '   $ ' # 6 # # 6 # # 6 6 < # '   $ ' # ",
"$ 4 $ # # 4 # $ '   $ ' # # # # # # 4 6 # # 4 # # $ '   $ ' # $ 4 $ '   $ ' < 6 6 6 4 $ '   $ @.# 4 # # 6 # # 6 6 < $ '   $ ' # ",
"# < 9 p 8 t w $ '   $ ' $ # 2 , # # 4 6 # # 4 # # $ '   $ ' # $ 6 $ '   sXuXlXxXlXuXd d d f f f d tXgXvXzXdXdXgXuXpXuXuXaXQ.5Xy ",
", pXdXbXvXlXaXlX'   $ @.< # # y # $ 6 4 # $ 4 # # $ '   * ' $ 4 6 $ '   dXdXlXsXdXaXd d tXd d d yXf d d yXaXaXuXuXuXtXyXaXuXyXtX",
"aXlXuXuXyXuXa d pX. W.5X4 # t vX# < 6 4 # $ 4 # # $ '   $ ' % 6 6 $ '   lXJ.* pXuXuXf f a d d tXyXyXyXyXyXyXuXyXtXyXyXyXg g g u ",
"uXaXyXyXd d uXlXaXsX* dXuXdXbXzX$ < 6 < # < 4 # # $ '   $ ] 4 6 6 $ '   w K.# # sXuXf d yXtXf d yXyXuXuXuXuXuXtXuXd yXyXu u i u ",
"uXaXyXd d dXaXlXdXsXsXsXiXuXvXW.< 6 6 $ # < 4 # # $ '   $ ' 6 6 6 $ '   1 5X# # vXaXtXd aXyXd tXyXyXyXaXaXaXuXuXuXa yXtXu u i g ",
"g i s yXyXyXuXuXuXyXd d tXs aXyX< H.6 * # < 4 # # $ '   $ ' 6 6 4 $ '   $ @.t # sXvXuXyXuXlXlXlXlXaXdXdXlXuXuXaXaXd d d yXdXdXaX",
"a uXaXyXuXuXyXd d tXd d d d aXdXxXlX6 # # 4 4 # # $ '   $ ' 6 6 4 # '   $ @.# 9 bXvXzXgXsXxXt ' w aXuXdXlXuXtXyXyXd tXd d yXuXyX",
"# 2 p t y sXdXlXaX3Xa f d d dXbXdXfX4 # # 4 4 # # $ '   $ ' 6 6 < $ '   $ ' # , bXgXp * sXdXlX' # zXlXlXuXa d tXuXtXd d d uXlXaX",
"* # # # # # $ # ' g a s s yXyXuXdXW.4 # # 6 4 # # $ '   $ ] 6 4 < $ J.  $ @.< 3XcXe $ * '   sX' # 6 3XdXyXs yXaXuXuXdXuXdXvXlXuX",
"$ # # # # # % $ @.h uXtXg a d yXH.6 < # 9 qXH.# # $ '   $ ' 6 4 # $ '   % @.0 $.qX_.C.5 '   $ ' # 6 # zXdXtXaXlXlXzXbXbXlXdXxXt ",
"4 $ # # # % 3 $ ` + dXaXaXtXf a sX6 # # # ` V.3 # $ '   $ ' 6 3 # $ nXE.5XJ.8 9 U.qXl.).@.  $ ' # 6 # # 4 6 @ K.H.5 $ '   $ ' $ ",
"4 $ # # # % 4 $ +.lXdXdXbXbXd d sXH.# # # 7 0 C.8 $ '   $ ' 4 % # 3 wXnXnX6X6 < # V.&XqXP.  $ ' # 6 # # % ` $ _., 4 $ @.  $ ' # ",
"4 % * # $ % pX$ ' O xXdXvXxXyXd uXe # U.C.ZXZX6 # $ '   $ ' H.w 9 E.wXmX^./.` J.wXnXl.Z.+.  $ ' # 6 # # < b.).wX% 4 $ @.  $ ' # ",
"4 4 $ $ $ 4 % $ ' 2 aXaXlXaXlXuXsX3 < l.n.M.B.4 # $ '   $ ' $ !.hX^./.I.hXhX4.b.).).K.$ '   $ ' # 6 # # 3 ).`.$ $ < $ '   $ ' # ",
"< 4 - $ 7 4 $ $ '   * ' , 3XvXxXW.$ # $.`.qX&X_.5 $ '   $ ' # !.S.F.S.O.S.O.i.x.s.;XM.< N.9 $ ' # 6 # , 5Xc.n.~.9 < $ '   $ ' # ",
"$ 4 4 $ 4 4 $ $ '   $ ' # # $ 4 < # # @.}.Z.{.5 # $ @.  0 ' 1 # G.tXI.F.S.S.^.^.`.B.0XoXN.^ > ' # 6 # Q =XB._.Y./.# $ '   $ ' # ",
"$ 4 6 % 4 4 # $ '   $ ' # # # $ $ # # 1X%X(.=X0 # $ +.m.s.K.# * E.~.R.v.^.'.n.B.B.C.=X9X&X  $ ' # 6 % E c._.qX!.w $ $ '   $ ' # ",
"A 4 6 6 6 4 # $ '   $ ' $ # # # # # q f.N.m.|.0XN.N.u.|.V.' # # 9 !.P.I.~.F.(.C.|.{.@XoX+.  $ ' # ~ J J U ).MXjXhX% $ '   $ ' # ",
">XS ~ 6 6 4 # $ '   $ ' $ # # # # 1 <X+XN.n.N.VXBX9X0X=X#.' # Y.4 $ O.} T | d.9X=X0.9.s.'   $ ' % 2.2.Y l.l.&XR.~.# $ @.  $ ' # ",
"$XXX+X8.$.6 # $ '   $ ' 4 # # # # # 7 N.(.9X&XeX_.hX'.ZXcX_.^.o...P./ b V L a.N.3.u.>X.X)   % @.# T E 1.1.7.9...%.%.9 @.  0 ' # ",
"#X|.-.OX>X% # % ' O W.fX .: # # # # # 0 6 # jXMXMXqXN.jX5XNXCX^... .Y._ 1.B / S.] #.,X,X:X  # ' # &.d.3.1.s.j.[.|.-.J.P.o $ ' $ ",
"[.7.0.{.>X*X# 5 v.4.o.n.U.o.# # # # % 4 H.P.T.7X'.(.(.W N.^.I.b.(.s.d.o./ R 2.M.r.S J 1X:X  * ' # ! 6.e.-.0.{.|.T :.<.b.C.@.' $ ",
"OX<X@X>X@X:X8XQ.D._ v.c.v.O.4 # # # < 8 4 # # N._.i.V.=X6.X.o./.jXT.U { R 2.q.^ l.<Xf.[.$.  % ' # Q N.t.p.E r.a.-.C V 3.i. .' < ",
"7.2X<X2X<X0..X$.4.~ <.<._ O.& # # # 4 6 > # # < @.s.1.E 6.q.8.N.U.T.s.f.U -.OX.X#X:X:X! '   $ ' $ u.6.Q p.%Xe.y.e.-.w.i.=.b.' < ",
";.-.q.$X<X{.8.q.>.4. X,.P 5.H m # % 4 6 # # # ` f.a.f.;.6.} F.I.o.-XoX|.-.Z M Q p.%X# * '   $  .n 9.s.M.t.m.].M.8.Q ;.P H r.&.4 ",
"x.j.>.=.6.f.6.7.z.g.h.5.c 4.P j # $ 6 6 # # # &.b.%.o.{ G H _ } o.r.}.k.N q.Z K U n # % @.  $ L M t.p.y.M.[.|.y.2.R N N B F n 7 ",
">X Xj.u.{.{.8.[.OXOXOXh.<.c.r r $ 6 6 4 # # # [ #.$._ G ^ ^ }  .:.w.m Z W r.L E ;.Z # % '   $ { n *XQ q.Q [.:X].].I n D k v c B ",
"x. Xx.j.z.XX6.XXXX X X$X1.N - - 8 7 6 $ # # # ` S.X.] L U #._ -.8.D ! M E T S >.;.L ~ % '   $ n H T R A F B f.y.#.e.k k z l c C ",
"x. X9.,.g.XXx.;.n a.0..Xj.P P | ..- 4 # # * 9 / / n / { G }.s.D 9.D a.2.w.k.b.Q 2.2.U J '   % n *Xr.D C N B L A R e.D A =.<.g.,.",
" XXXOX{. X-X<XOXg.{.C 6.:.d.w.8.G R { #.( ..o.I.Y.T t.W Q S M r.u.u.6.G e.y.k j l H H v F n R [.f.& j F F l l v -.C *.=.h.9.>.;.",
"OXXXh.@X<X1X$X.X{.$XA e.[.-X-Xq.m J #.E y.( / F.G.v.2.-.M M 7.k.*.C M V -.B B F v v V F H ..#.[.f.= [ z m z 3.s.9.>.=.=.u.*.7.A ",
"<X;Xk.OXOX2X#X#X<X-X9.D :.a.d.2.f.[.-XN.; 9 r K. .|.a.E T n.S ;.C U ;.A 1.V >.C F 1.L G | m.m.a.0.k z & %X;.k.6.S V z.j.:.*.V t.",
"j.j.*.>X X>X{.k.j.V =Xk.M M m.U n.#.:X2.1.- [ ` =Xk.4.b.n.r.f.E 1.*.:X,Xw.>.1.N B <..X-Xu.} b J #.F z r.2.e.{.XXOXg.7.:.M C Q ]."
};
