/* XPM */
static char *fire21696767426[] = {
/* columns rows colors chars-per-pixel */
"64 64 244 2 ",
"   c #28200C",
".  c #382C14",
"X  c #352A17",
"o  c #2F2612",
"O  c #403018",
"+  c #483818",
"@  c #443216",
"#  c #543C1C",
"$  c #573C18",
"%  c #432F11",
"&  c #6E3B12",
"*  c #503922",
"=  c #6C3730",
"-  c #5D421C",
";  c #69441A",
":  c #794B1A",
">  c #5C4020",
",  c #584427",
"<  c #594431",
"1  c #6C4824",
"2  c #634A2C",
"3  c #66472A",
"4  c #724B25",
"5  c #744C28",
"6  c #7B4A26",
"7  c #77532B",
"8  c #674C35",
"9  c #744938",
"0  c #6A5138",
"q  c #795639",
"w  c #693F41",
"e  c #5E434B",
"r  c #6D474A",
"t  c #7D5046",
"y  c #8A3819",
"u  c #973B15",
"i  c #A23D12",
"p  c #803F2C",
"a  c #9E440F",
"s  c #8A4818",
"d  c #9B4213",
"f  c #994319",
"g  c #995A16",
"h  c #875317",
"j  c #AD4B0E",
"k  c #A7440C",
"l  c #B44C0C",
"z  c #BA4D08",
"x  c #AE540E",
"c  c #B6520C",
"v  c #BB540C",
"b  c #BB590B",
"n  c #A54512",
"m  c #AA4415",
"M  c #A54A14",
"N  c #AC4B14",
"B  c #AA4C1C",
"V  c #A3491C",
"C  c #B44D12",
"Z  c #BA4D13",
"A  c #B64919",
"S  c #AD5B1A",
"D  c #A85519",
"F  c #B55213",
"G  c #BB5413",
"H  c #B45A14",
"J  c #BD5A13",
"K  c #B4541C",
"L  c #B35B19",
"P  c #BB5C1B",
"I  c #BC521B",
"U  c #BD6414",
"Y  c #BC631C",
"T  c #B86719",
"R  c #BA7417",
"E  c #884C28",
"W  c #9B4C25",
"Q  c #9B4B2C",
"!  c #974726",
"~  c #895728",
"^  c #97582A",
"/  c #984D36",
"(  c #905C34",
")  c #9B5636",
"_  c #855037",
"`  c #A34B23",
"'  c #AA4D21",
"]  c #A44D2A",
"[  c #A94926",
"{  c #B94D27",
"}  c #A55124",
"|  c #AC532B",
" . c #A85627",
".. c #B35523",
"X. c #BA5422",
"o. c #B75928",
"O. c #A84C30",
"+. c #A45332",
"@. c #AE5C35",
"#. c #A75738",
"$. c #B55A35",
"%. c #99632D",
"&. c #94613C",
"*. c #9C6635",
"=. c #926A38",
"-. c #A66529",
";. c #B86727",
":. c #B97724",
">. c #AB653B",
",. c #B86738",
"<. c #AF722A",
"1. c #C34D0B",
"2. c #C2540C",
"3. c #CA540A",
"4. c #C35B0C",
"5. c #CA5C0C",
"6. c #C65407",
"7. c #D7580D",
"8. c #C24D15",
"9. c #C35C13",
"0. c #C2561A",
"q. c #C75917",
"w. c #D75A18",
"e. c #E25E16",
"r. c #E4590E",
"t. c #C5620D",
"y. c #CC630C",
"u. c #CC680C",
"i. c #D26A0D",
"p. c #D8690E",
"a. c #C46413",
"s. c #CB6413",
"d. c #CC6B13",
"f. c #C1621C",
"g. c #CA641A",
"h. c #C46B1C",
"j. c #CC6D1A",
"k. c #C66B14",
"l. c #D26512",
"z. c #D36C12",
"x. c #DA6A12",
"c. c #D46B1A",
"v. c #CC7316",
"b. c #CA711D",
"n. c #CD7A1D",
"m. c #C3781D",
"M. c #D47314",
"N. c #DB7313",
"B. c #DA7915",
"V. c #D4751B",
"C. c #D37B1B",
"Z. c #D77A19",
"A. c #DA7A0E",
"S. c #E97B0E",
"D. c #E56A14",
"F. c #E27413",
"G. c #E47A17",
"H. c #F57514",
"J. c #E5680E",
"K. c #CA5B25",
"L. c #D45620",
"P. c #C26424",
"I. c #C36A25",
"U. c #D76924",
"Y. c #C37423",
"T. c #C97728",
"R. c #D27322",
"E. c #D97924",
"W. c #C96C36",
"Q. c #C3723A",
"!. c #CA7737",
"~. c #D57738",
"^. c #D26936",
"/. c #E26E23",
"(. c #E17925",
"). c #865A47",
"_. c #985947",
"`. c #91584F",
"'. c #A55B44",
"]. c #B15D42",
"[. c #8A6249",
"{. c #996448",
"}. c #896558",
"|. c #996959",
" X c #987055",
".X c #AB644A",
"XX c #A66648",
"oX c #B96B46",
"OX c #BA7445",
"+X c #A76858",
"@X c #B56B52",
"#X c #A87358",
"$X c #B97456",
"%X c #AC704B",
"&X c #9B6C65",
"*X c #98756B",
"=X c #906F6D",
"-X c #A47469",
";X c #AE796A",
":X c #B57A65",
">X c #A87B76",
",X c #A46E68",
"<X c #CA7749",
"1X c #C87952",
"2X c #D27645",
"3X c #A98532",
"4X c #DB8319",
"5X c #E48415",
"6X c #EC8C1C",
"7X c #E78718",
"8X c #F48513",
"9X c #EB971C",
"0X c #F49918",
"qX c #F4A31A",
"wX c #CA8429",
"eX c #D78726",
"rX c #CD8638",
"tX c #D78536",
"yX c #DA9727",
"uX c #E88825",
"iX c #E59924",
"pX c #EAA629",
"aX c #F3AB25",
"sX c #F3B327",
"dX c #EBAE35",
"fX c #B98267",
"gX c #AD837C",
"hX c #B98778",
"jX c #BB907E",
"kX c #CA8558",
"lX c #D08147",
"zX c #C58866",
"xX c #C38C79",
"cX c #D39972",
"vX c #B88D84",
"bX c #BA9C97",
"nX c #AD8E87",
"mX c #B9A0A1",
"MX c #C89584",
"NX c #CDA289",
"BX c #D7B39A",
"VX c #C9B0AB",
"CX c #DAC5BE",
"ZX c #CDC1C3",
/* pixels */
"O O O O . O O O O O . * < . + . O O O O O O O O O O O O O O O O O O O O O O O O O O O O O O O O O O O O O O O O O O O O O O O O ",
"1 1 1 1 1 1 1 1 1 1 1 {.XX4 1 1 1 1 1 1 1 1 1 1 1 1 1 1 1 1 1 1 1 1 1 1 1 1 1 1 1 1 1 1 1 1 1 1 1 1 1 1 1 1 1 1 1 1 1 1 1 1 1 1 ",
"( ( ( ( ( ( ( ( ( [.*X,.K.^ &.( ( ( ( ( ( ( ( ( ( ( ( ( ( ( ( ( ( ( ( ( ( ( ( ( ( ( ( ( ( ( ( ( ( ( ( ( ( ( ( ( ( ( ( ( ( ( ( ( ",
"# # # # # # # = } @.fX-X#.K ; # # # # # # # # # # . #   . # # # # . #   . # # # # # # . #   . # # # # # # # # # # # . #   . # # ",
"+ + 1 5 5 5 7 _.{ { L./.U.w.s + + 5 5 + 1 + 1 + + # (   # ( 5 + 5 # (   # ( > + + + > # (   # ( + 5 + + 5 + 5 + 5 5 # (   # ( 1 ",
"+ + 1 5 5 5 0 }.#.$.e.U.! + + + + 5 5 + 1 + 1 + + # (   # ( 5 + 5 # (   # ( 5 > + # 5 # (   # ( + 5 + + 5 + 5 + 5 5 # (   # ( 1 ",
"+ + > 5 5 5 # o.' [ 8.o.5 # + + # 5 5 + 1 + 1 + + # (   # ( 1 + 5 # (   # ( 5 5 - 5 5 # (   # ( + 5 + + 5 + 5 + 5 5 # (   # ( 1 ",
"# + # 1 5 5 ; g.m 0.I ) 5 + + + - 5 1 + 1 + 1 + + # (   # ( 1 + 5 # (   # ( 5 5 5 5 5 # (   # ( + 5 + + 5 + 5 + 5 5 # (   # ( 1 ",
"1 + + > 5 - + 4.3.D.x.B E - + # 1 5 1 + 1 + 1 + + # (   # ( 1 + 5 # (   # ( 5 5 5 5 5 # (   # ( + 5 > , 5 + 5 + 1 5 # (   # ( # ",
"1 + # + > # + u.D.r.r.Z 8.4 + $ 5 5 > + 1 + 1 + + # (   # ( > + 5 # (   # ( 5 5 5 5 5 # (   # ( + ^ $X>X[.+ 5 + 1 5 # (   # ( # ",
"5 # + + # + : S.8XH.7.A 8.6 3 1 5 5 > + 1 + 1 + + # (   # ( > + 5 # (   # ( 5 5 5 5 5 # (   # ( + ,.oXvX#X# 5 + > 5 # (   # ( # ",
"5 # + + + + - sX0X0XqXq.c.E 1 5 5 5 # + 1 + 1 + + # (   # ( + + 5 # (   # ( 5 5 5 5 5 # (   # ( : 5.V.T.Q.; 5 + > 4 # (   # ( + ",
"1 5 + + + # E 4X8XS.qX-.C E 3 5 5 5 # + 1 + 1 + + # (   # ( + > 5 # (   # ( 1 5 5 5 5 # (   # ( E $.$.$XwXR 6 # + 5 # (   # ( + ",
"1 5 # + + # h l v.5X7XB.g 5 5 5 5 1 + + 1 + 1 + + # (   # ( + > 5 # (   # ( 1 5 5 5 1 # (   # ( f '.@X$X!.5X~ # + 5 # (   # ( + ",
"> 5 5 + # 4 4 & z c 4.p.} 5 5 5 5 1 + + 1 + 1 + + # (   # ( + 5 5 # (   # ( # 5 5 5 1 # (   # ) C Q [ | P.M.~ # + 5 # (   # ( + ",
"# 5 5 5 # 4 - $ ^ & 4.;.4 5 5 5 5 1 + + 1 + 1 + + # (   > ) # 5 5 # (   # ( + 1 5 1 > # (   # ( V V V J s.H h # + 5 # (   # ( # ",
"+ 1 5 5 - 5 # # -.m.4X%.; 5 5 5 5 - + + 1 + 1 + + # (   # ( # 5 1 # (   $ ( + # 1 - + # (   # ( Q Q G M.b R ~ > + 5 # (   # ( # ",
"+ 1 5 5 5 5 # # *.h : ( > 5 5 5 5 > + + 1 + 1 + + # (   # ( 5 5 1 # (   # ( + + > + + # (   # ( m.Y v u.u.m.h > + 1 # (   # ( # ",
"+ > 1 5 5 5 + # (   # ( > 5 5 5 5 # + + 1 + 1 + + # (   # ( 5 5 > # (   # ( + + + + + # (   # ( ; a.c i.U g 5 1 + 1 - (   # ( 1 ",
"+ # 1 5 5 > + # (   # ( - 3 5 5 5 # + # 1 + 1 + + # (   # ( 5 4 > # (   # ( + + + + + # (   , ( + E g g S - 5 1 + 1 + (   # ( 1 ",
"+ + > 5 5 # + # (   # ( # 1 5 5 1 + + # 1 + 1 + + # (   # ( 5 1 + # (   # ( + + + + + # (   [.$X+ 5 + + 5 + 5 1 + > # (   # ( 1 ",
"+ + # 5 5 # + # (   # ( + > 5 5 1 + + # 1 + 1 + + # (   # ( 5 > + # (   # ( > + + + # # (   $ ( + 5 + + 5 + 5 5 + > # (   # ( 1 ",
"# + # # # + + # (   # ( + > 5 5 > + + > 1 + 1 + + # -.o # ( 1 + + # (   # ( 1 $ + # 5 # (   # ( + 5 + + 5 + 1 5 + + # (   # ( 1 ",
"# + + # + + # # (   # ( + # 1 1 > + @ - 1 + 1 + + ; l.+ # ( > + + # (   # ( 5 1 3 1 5 # (   # ( + 5 + + 5 + 1 5 # + # (   # ( 1 ",
"# + + + + + # # (   # ( + # # > # + + > $ + 1 + + ! X.%X- ( + + + # (   # ( 5 5 1 5 5 # (   # ( + 5 + + 5 + - 5 # + # (   # ( > ",
"1 + + + + + 1 # (   # ( + + # # + + + 1 # + 1 + 6 | ].oX_ ( + + + # (   # ( 5 5 5 5 5 # (   # ( + 5 + @ 5 + > 5 > + # (   # ( # ",
"1 + + + + + 1 # (   # ( + + + + + + + 3 # + 1 + 9.` #.].,.@.+ + # # (   # ( 5 5 5 5 5 # (   + ( + 5 + + 5 + # 5 > + # (   # ( # ",
"1 # + + + # > # (   # ( + + + + + + # 5 + + 1 ; m ` ! Q P :.+ + # # (   # ( 5 5 5 5 5 # (   # ( + 5 + + 5 + # 5 1 # # (   # ( + ",
"> # + + + # # # (   # ( + + + + + + > 5 + + 1 # ! / j k.t.Y + + > # (   # ( 1 5 5 5 5 # (   # ( + 5 + + 5 + # 5 1 # # (   # ( + ",
"# 1 + + + 1 # # (   # ( + + + + + + - 5 + + 1 + S ,.M 4.u.T + + 1 # (   # ( 1 5 5 5 5 # (   # ( + 5 + + 5 + + 5 5 > + (   # ( + ",
"# 1 # + + 1 + # (   # ( + + + + + + 1 5 + + 1 + : 4Xc t.i.T + # 1 # (   # ( > 5 5 5 1 # (   # ( + 5 + + 5 + + 5 5 > # (   # ( + ",
"+ > # + 1 > + # (   # ( # + + + + + 1 5 + + 1 + + ; t.U 4.U + - 5 # (   # ( > 1 5 5 1 # (   # ( + 5 + + 5 + + 1 5 1 # (   # ( + ",
"+ # 1 # 1 # + # (   # ( > + + + + # 5 1 + # 1 + + > D U d.l.3 1 5 # (   # ( + 1 5 5 $ # (   # ( + 5 + + 5 + + 5 5 1 # (   # ( + ",
"+ # 1 # 1 # + # (   # ( 1 # + + + > 5 1 + # 1 + + + -.M.3.l ; 5 5 # (   # ( + > 5 3 + # (   # ( + 5 + + 5 # + # 5 5 # (   # ( + ",
"+ + > 1 # + + # (   # ( 5 > + + # > 5 > + > 1 + + # ( & s W 1 5 5 # (   # ( + + 1 - + # ( 8 3 &.+ 5 + + 5 , 2 $ 5 5 # (   # ( # ",
"+ + # > # + + # (   # ( 5 1 # + # 5 5 # + > 1 + + # (   $ &.5 5 5 # (   # ( + + - + + # ( o > ( + 5 + + 5 {.2 # 5 5 # (   # ( # ",
"+ + + # + + + # (   # ( 5 5 > + > 5 5 # + > 1 + + # ( X , ( 5 5 :XvXhX&X8 ( + + + + + # &.  # ( + 5 + 0 ( 1X+ # 5 5 # (   # ( # ",
"+ + + + + + + # (   # ( 5 5 5 > 5 5 5 + + 1 1 + + # ( o 0  X).[.:XxXhX;X[.XX> + + + + # (   > ( + 5 3 ^.<XhX+ # 5 5 # (   # ( 5 ",
"+ + + + + + # # (   # ( 5 5 5 5 5 5 1 + + 1 1 + + # (   # |.gXgX+X:X;XnX,.W.%X+ + + + # (   [. X2 5 {.~.<X).+ + 1 5 # (   # ( 1 ",
"# + + + + + # # (   # ( 1 7 1 5 5 5 1 + + 5 1 + + # (   + `.>X;X+X+XXX&Xc.F.F.: + + + $ (   # ( q 7 q ~.<X{.+ + 1 5 # (   # ( 1 ",
"# + + + + + > # (   # ( 1 5 5 5 5 5 - + + ( OX+ - + (   > [.,X'._.O.$.O.A g.~.7 + + + # (   - &.MXMXcX/.U.oX0 + # 5 # (   # ( # ",
"1 # + + + # > # (   # ( > 5 5 5 5 5 # + - n.( + . > (   , &._._.+X'.O.O.@.| fX( + + $ # (   , #XMXkX(.^.<XoX}.+ > 5 # (   # ( # ",
"1 # + + + # 1 # (   # ( # 5 5 5 5 5 7 %.V.6X5 + . - ,.4 , ( ).&X>X'.+X,XvX:X1X^ + > > # (   7 #XQ.g.G.U.^.$X*X+ # 1 # (   # ( + ",
"1 > # + # > 1 # (   # ( + 1 5 5 5 7 dXtX2XiX~ + > %.Z.*.- (  X&X@XoX:X:X<X^.2X!.> > 1 # (   - T.q.K.g.1XMXvX0 + # 1 # (   # ( + ",
"1 1 # # # 1 > # (   + ( + # 5 5 7 3X7XE.V.uXlXR.R.B.E.@ , =.0 t +X.XW.+X,.2X(.6X; 5 5 # (   # I.X.| Z ^.BXVX*X+ # > # (   # ( + ",
"> 1 > # # 1 # # (   # ( * # 1 7 =.dX5XE.R.tXcXcXeXuX!.. + {.2 , `.] ..| g.E.G.F.~ 5 5 # (   ; g.9.I 5.s.kXhX-X+ + $ # (   # ( + ",
"# 1 1 > 1 1 # # (   - {.}.8 8 ).*.aX9X!.U.MXVXBXnXCXcXOX( oXt }.-XXX' G X.,.,.5Xg 6 5 # (   ; s.c.;.U.5X6XoX-X_ + # # (   # ( + ",
"# 1 1 > 1 1 + # (   - ;XgX-X+X*XOXE.6XfXlXcXxXMXgXCXCXjXfX%X$.@.#X_.' Z 9.x.W.7X-.4 5 # (   : q.0.0.q.p.G.;.OXOX3 # # #X  # ( + ",
"+ 1 5 5 5 1 + # ( X q ,.| #._._.,.o.>.3 *.NXCXzX!.cXmXbXbX:X#.@.| / B l j } ,.B.<.7 ; + (   h l.l.I 0.c.y.u.k.;.) - # (   # ( + ",
"+ > 5 5 5 1 + 1 .X*XnX'.0.l.8.+X:X>.> , [.bXhXxXzX~.zXgXVXhX,.X..XXX] G N {.+X .S ~ 1 $ ( % U 4XV.a.q.d.5X5XM.5.F XX#X{.  # ( + ",
"+ # 1 5 5 1 < | L.$.2X<X^.e.8.L.1X`.# ).%X XzX<X1XQ.Y.OX@XoX@X<Xl.P.Q | N ;.V.a.V wX3X<.T.a.C.M.d.M.4.z.5X6XJ 6.v K.~.<X# # ( + ",
"+ # 1 5 5 , }.`.+.K.D.L.K.L./.e.w.+X0 1 5 1 !.~.!.!.z.J @.oXgXhXk.A ....t.K ,.aX4XeXpX9XB.7Xv.l.R.n.v.J c.v.t.z z 3.c./.s # #.# ",
"..; $ 6 1 <. XK.O.A e.O.O.0.e.H.D.^.).5 1 + ( uXu.a.h.Y ,.g.fX;XP.9.b 5.6X0X9XaXsXsXdX5Xz.M.6XN.v.Y T.C.s.a.4.v G q.x.P.k 5 @X* ",
"o.K # 1 ~ M.Y C i 0.[ 8.[ i r.e.w.$.}.9 5 + + iXB.| K W.K.g.!.!.f.s.d.9.4XZ.Z.5XpXsXyXu.k.I.J d.i.v.v.wXj.a.v.t.a.J.5.o.} ! +.> ",
"l.y.: s H d.M.q.8.D.8.i w.[ r.{ Q {.[.q > + 7 6X6Xc.q.@.@.$.$XQ.9XM.4.j d D S pXpXyXwXP Y A C l.z.j.d.R.n.b.d.n.s.l.l q.;.` W > ",
"K G 9.W F u.5.x.w.D.3.Z r.7.Z W ).|.&X5 + + ~ E.I.X.y.9.W '.@XoXZ.A.J v k.P Y a.t.Y.Y.C G m F q.d.j.rXeX4XC.f.S l m l { R.` G 1 ",
"` ` N ` W J i.F.H.D.1.i 0.! = ).`.>.XX&.0 =.R.I.>.Q V G ` ! ` P B.B.M.F F M C 5.G I.k.4.N F m Y n.b.T.eX9XeXh.L a k i i M.S v 1 ",
"` B ! / j k.A.0X0X0XD.q...r w r t `.,.XX{.rXW.E.#.W B ! Q M f.t.U D m.J F F 6.2.Z ;.I.b.K N M Y.I.9.9.M.iXwXwXH a j u i J u.c 5 ",
"N F k.@.c t.u.0X8X0X0X7...= w ).t t >.&X{.{.XX| _.D C ..) C u.y.m.S T c C 2.5.C P I.Y.eXL d m ;.L c j l 4X4XY.k.n a u u l x.s.5 ",
"X.D 5XB.c i.i.M.8XS.9Xa.B ! ! p 9 _ ;.[.=X*X/ ) ] K F B.Z.F y.u.m.J G j.4.v z G v Y ,.;.o.y D P.L c a a b R Y M.a M n k C y.q.5 ",
"Q } z.5.y.J d.x.x u.F.J.Z v 5.K _ W  .+.}.>X#.Q [ / W B.M.b t.4.U H l B.f.h.4.9.q.Z A K B d rXR J z k k H L N x b v l 3.y.5.5.5 ",
"P H a.4.f.v.z.4Xy.z M.l.c.9.t.N V W ) +.$.-X.X_.K L L a.s.a.Y d.k.T J c.M y C N m A C i ..wXyXT f u k n M n b v z 3.7.x.d.V.9.5 ",
"G C 9.a.u.k.D U 6X5X9X4XZ.z.J L W Q S ] ;.,.@.'.g.4.j N v M.x.5.v 6.q.F M u F u u i u V L T.4XD = y d y m c y.3.1.3.S.6.z.v.a.5 ",
"K ' ` 2.u.t.:.H 9XU H E.iXeXM D eXT.9.0.! ).|.] 9.K I j G x.y.1.k c x.4.v l K m Z C B D ;.eXM.d = y a y w.p.p.p.3.3.N.6.l.4X+.> "
};
