/* XPM */
static char *south1696768980[] = {
/* columns rows colors chars-per-pixel */
"64 64 234 2 ",
"   c #1C1A2E",
".  c #1D1A34",
"X  c #1B153D",
"o  c #1D1A3A",
"O  c #181336",
"+  c #231F2E",
"@  c #221E35",
"#  c #221E3C",
"$  c #24193A",
"%  c #242135",
"&  c #282334",
"*  c #25213C",
"=  c #28243E",
"-  c #2F2B3E",
";  c #38353B",
":  c #1E1C41",
">  c #1D1744",
",  c #231C44",
"<  c #241C4A",
"1  c #2A1D4D",
"2  c #241746",
"3  c #2B1D52",
"4  c #261F5A",
"5  c #262243",
"6  c #2B2545",
"7  c #2E2B45",
"8  c #25214B",
"9  c #2B254C",
"0  c #2E2A4B",
"q  c #322C45",
"w  c #31264B",
"e  c #332C4C",
"r  c #35314C",
"t  c #39344D",
"y  c #3D3B4D",
"u  c #393645",
"i  c #2D2353",
"p  c #2F2953",
"a  c #2E245A",
"s  c #312652",
"d  c #332C54",
"f  c #3A2E56",
"g  c #32255A",
"h  c #342C5B",
"j  c #392E5B",
"k  c #363154",
"l  c #3A3454",
"z  c #3D3955",
"x  c #36315A",
"c  c #3B345B",
"v  c #3D3A5B",
"b  c #363850",
"n  c #342C61",
"m  c #3A2E63",
"M  c #3D2E6C",
"N  c #362766",
"B  c #353463",
"V  c #3D3463",
"C  c #3D3A63",
"Z  c #3D336C",
"A  c #3D3D6B",
"S  c #3D2F71",
"D  c #3F3276",
"F  c #423B4B",
"G  c #423C55",
"H  c #41355C",
"J  c #433C5C",
"K  c #483D59",
"L  c #423663",
"P  c #433C64",
"I  c #493D65",
"U  c #42356C",
"Y  c #443C6B",
"T  c #493D6C",
"R  c #49376C",
"E  c #503E6B",
"W  c #433673",
"Q  c #463C73",
"!  c #4A3E73",
"~  c #44357A",
"^  c #453B7C",
"/  c #4B3C7C",
"(  c #49347D",
")  c #503F7A",
"_  c #45425D",
"`  c #49435D",
"'  c #454056",
"]  c #464264",
"[  c #4A4365",
"{  c #4C4964",
"}  c #46416B",
"|  c #4B436B",
" . c #4E496B",
".. c #524D64",
"X. c #51456E",
"o. c #534C6C",
"O. c #54486A",
"+. c #55516C",
"@. c #5B536E",
"#. c #474271",
"$. c #4C4373",
"%. c #4E4973",
"&. c #4D447C",
"*. c #4F4A7A",
"=. c #514573",
"-. c #534B74",
";. c #594B74",
":. c #52457C",
">. c #544B7C",
",. c #5A4D7D",
"<. c #565173",
"1. c #5B5475",
"2. c #5C5976",
"3. c #56527C",
"4. c #5B537C",
"5. c #5C597C",
"6. c #62557C",
"7. c #625A7D",
"8. c #615775",
"9. c #66637B",
"0. c #6B657F",
"q. c #463583",
"w. c #4C3C83",
"e. c #4C368D",
"r. c #4D3B8B",
"t. c #473983",
"y. c #513F84",
"u. c #523E8C",
"i. c #4E3C94",
"p. c #523E93",
"a. c #4D4283",
"s. c #4F438A",
"d. c #4F4884",
"f. c #534484",
"g. c #584684",
"h. c #554B83",
"j. c #5A4C84",
"k. c #54448B",
"l. c #59478D",
"z. c #554A8B",
"x. c #5B4C8B",
"c. c #575184",
"v. c #5C5283",
"b. c #5E5981",
"n. c #5D528B",
"m. c #5E588F",
"M. c #4D4594",
"N. c #544393",
"B. c #594792",
"V. c #564B93",
"C. c #5B4C93",
"Z. c #544399",
"A. c #5B469C",
"S. c #5D4B9C",
"D. c #514A99",
"F. c #5D5293",
"G. c #5D529A",
"H. c #565392",
"J. c #614E8E",
"K. c #615484",
"L. c #635A83",
"P. c #695E84",
"I. c #62548B",
"U. c #645A8B",
"Y. c #695D8C",
"T. c #685480",
"R. c #614E92",
"E. c #614E9C",
"W. c #684F9A",
"Q. c #635493",
"!. c #695695",
"~. c #655A94",
"^. c #6A5C94",
"/. c #63549B",
"(. c #655A9A",
"). c #6B5C9B",
"_. c #69569E",
"`. c #715E9C",
"'. c #715C90",
"]. c #676184",
"[. c #6B6285",
"{. c #66618E",
"}. c #6B648C",
"|. c #6C698C",
" X c #71648D",
".X c #736B8C",
"XX c #786E8A",
"oX c #78718D",
"OX c #666291",
"+X c #6D6292",
"@X c #6E629B",
"#X c #6E6896",
"$X c #726594",
"%X c #736B94",
"&X c #796C93",
"*X c #73649C",
"=X c #756A9C",
"-X c #7A6D9C",
";X c #79679E",
":X c #7A7195",
">X c #7D739D",
",X c #7C7B93",
"<X c #5C4DA2",
"1X c #624EA1",
"2X c #6553A3",
"3X c #6956A0",
"4X c #655AA1",
"5X c #6C5CA2",
"6X c #6D5BAA",
"7X c #6955A8",
"8X c #725EB2",
"9X c #7059A4",
"0X c #6B62A5",
"qX c #7364A4",
"wX c #7669A2",
"eX c #7B6CA2",
"rX c #7463AA",
"tX c #7C6CAA",
"yX c #7867A7",
"uX c #7D73A3",
"iX c #7C73AB",
"pX c #7C69B3",
"aX c #7E71B0",
"sX c #81749E",
"dX c #84799A",
"fX c #8275A4",
"gX c #847AA4",
"hX c #8375AA",
"jX c #8B7DAA",
"kX c #8A7CA4",
"lX c #836BA1",
"zX c #87809E",
"xX c #8C81AB",
"cX c #8D80A4",
/* pixels */
"n.:.L.-.7.X.;.| I v 3.-. .7.<.o.v U.I.h.>.I.j.j.U.OX&.v.K [.j.[ [ | >.U.h.U.I.>.v.v |.-.v.j.k.Q.(.Q.).*XqXU.0 n.n.>.v.h.:.h.h.U.",
"z.h.*.$.L.=.L L I | | -.} =.| -.c I./.z.s.G.G.d.k.a.V.f.l K.j.[ L T &.&.^ ^ f.z.f.x L.Y.U.f.f.k.B.k.M.f.R.).s k.G.z.~ d.k.a.w.s.",
"a.~.n.} T L L H P l c P L L V  .V h.a.x.k.k.C.H.(.a.H.~.z -.Z ] P T *.G.z.z./ n.~.l | | ,.I.x.k.C.r.A.x.C.).i s.a.l.C.k.z.D V.z.",
"b.4.5.] 8.` O.{ I z k e w c c J c T :.>.v.v.U.{.b.U.v.4.z 5.| [ ..[ ;.-X#XU.L.c.v.t 8.[ [ O.[ v.h.f.z.v.x.~.e #.#.h.c.U.#X=XU.v.",
"8 6 e - q t y t q * t l t l k e r p s f l 0 * r 6 0 * 0 7 7 d y y t r 0 0 0 6 6 6 q 7 t k t t # d h i w g i 7 9 i p x p 5 k 0 q ",
"} } T K.$X*X*XU.{.k *XwXqX@X).Q.z.k.h.R.B.n.v $.} A Y } $.OX*X=XY.}.T.I | } } } } >.}.=X-XK.+XH :.B.w.k.l.f.f.k.d.~.H.H.Y %.Y L ",
"} #.#.! K.:.,.v.U.c eXrXpXrXQ.k.k.D.C.W.1XF.l } } Y } Q &.x.x.:.v.n.Y.L } | Y Y T =.I.:.:.U.K.H *Xk.B.k.C./.z.z.F.s.^ V.#.| #.| ",
"Y &./ / g.n.n.K.>.v j.w.A.2X5X5XV.2X4Xk.V.~.H c L P | >.#.Q n.x.n.v.v.h V A Y %.>./ ! I.g.J.4.j -XrX).(.(.(.G.3XG.k.a.!.} c U I ",
"Q Q $.$.! ,.:.,.K.c ^.B.u.B./.f.J.).t.g.!.@Xl V x L T >.! :.) :.h.v.U.c v V } I -.! :.&.) j.,.c +X!.*X^.l.f.).).f.x.C.@XX.J C L ",
"2 2 > < s 1 2 2 1 X g 4 g 3 g 3 g 3 4 g 1 x $ > X # < , $ w 3 3 < < 9 O X > , < $ < 9 1 2 2 1 X d s s 3 3 1 3 2 3 3 3 i $ # X # ",
"sX>X>XO.K.Y.U.'.*XL.h.:.3.}.Y.}.;.kXfXkXxXuX>XgXfX>X>X&XO. XdXsXgXgX&XkXkX>X>X>X>X{ 4. XY.4.v.v.P.,.Y.}. X XH sXfXgXjXfXdXzXgX>X",
"*X;X:XE K.x.I.g.I.C.x.,.v.f.x.K.E eXeXjXgXfX`.@XwX*XwX;XX.6.lXwXhXeXuX+X=XeX+X=X=XP L.j.U.x.h.:.n.~.!.`.T.6.f ).wXtXhXfX*X).>X:X",
"Q.n.OX$.U.!.x.f.x.z.^.`.~.H.h.K.E ;XtXhXgXlX`.eXwX*X5X).} 3.f.&.u.y.k.).yX5XR.f./.V j.F.F./.yX).f.j.R.l.Q.$Xg R.z.l.R.l./.5XyXwX",
"*Xn.OX%.~.I.v.n.:.j.n.x.n.f.I.L.| j.J.J.I.^.J.x.I.!.^.^.} 3.h.a.( g.l.f.:.z.x.F.n.L L.~.x.U.$XlX-X*XK.J.^.Y.j j.^.!.g.I.x.x.!.^.",
"J H k c R U U L P C U M W U W T x W M / ~ T U U U U ! T d [ T #.E Y T x h x V P c * z H c { o.1...+.{ O.o...& P } H j U L v c f ",
"@.;.o.4.^.b.U.$.I.c Y.qX!.).!.n.x.t.w.B.C.h.h =.=.! ! L O.6.'.;X$X X7.c ] P -. .P ` _ ] ] ] ..z 8.@...K J K ` { { T Y L [ +.+.6.",
"T T #.#.x.,.j.K.j.k =XqXtXqXR.B.k.i.V.2XD.n.p $.:.4.K.:.>.U.Q.x.I.h.~.V Y Q Q Q :.=.Q f.f.f.$.g ,.V j V W %.! T g.).S.x.| O.L T ",
"Y T Y &.f.I.J.J.f.l I.p.E.rX`.E.N.k.4X<XZ.F.0 T v.n.j.n.z.&.x.g.J.j.v.B V Y Y %.>.>.:.x.k.R./ g >.y.L V 3.v.>.f.x.S.1X(.#.} &.#.",
"C P I >.&.v.>.j.I.H !.Z.B.R./.D.M.6Xz.t./.~.e B | | Y $.! :.&.:.,.K.U.c Y } $.} =.$.A U n.n.s e 7.>.L c } } P } } x.Q.@X-._ P #.",
"e e 7 l h d d s x * V M M h T j ! L x Z h { . 0 6 0 s 9 c P V d s L  .8 5 5 9 0 9 e k p g 0 e 6 b r 9 8 * 5 d 7 6 c x | e 7 5 8 ",
"T.7.8.H -.-.-.$.4.O.P Y Y %.;.;.J 7.L.U.L.1.7.T.7.7.v.4.P -.-.%.| ;.v.5.L.7.P.T.6.t  .4.%.Y ! ! =.#.-.-.o.o.e 7.7.P.].4.7.7.L.T.",
"=XeX&XX.v.v.Y.I.~.4.>.Q f.c.H.c.#.iXuXuXjXuX%XuX-X-X>XfX| 4.v.}.K.U.U.#X>XfX=X-XfXI L.3.U.v.x.y./.!.~.$X}.[.l ;XfXgXjXuX=XeXuXuX",
"k.x.+X$.n.!.n.h.x.F.~.@X~.n.h.v.=.+XwX=XeXwX*XeX*X;X=X+X} v.U.=Xc.&.n.!.wX*XI.v.`.} K.K.~.U.U.Q.x.L.(.Q.I.$Xc x./.^.wXqX/.C.5XqX",
"g.I.^.-.}.n.n.n.&.c.h.F.H.z.x.I.:.h.l.).*X^.*X).^.^.%XU.$.v.}.Y.c.d.s.s.g.!.g.g.!.] L.U.n.g.Q.C.^.^.x.n.Q.{.V l.k.w.f.x.x.B.z.5X",
"4.4.;._ L.3.-.3.4.3.>.&.&.:.-.;.I K.=.,.;.5.1.=.4.5.[.1.v -.7.-.<.c.c.-.-.-.K.U.3.t 2.b.>.4.$XP.4.oXP.$X%XXXd 4.=.4.:.5.-.-.>.h.",
"x h x c h h B c c * r d c l r q q 6 k q q 7 @ 9 i k c H c h k x V c l 5 v p c x g v k k n x k * ' G l q 6 - q q t q q q = w p p ",
"y.k.k.C.B.s.k.l.!.t <.X.| o.%.-.J A Y L T [ k w./ / a.k.F.G.V.r.r./.^.P >.^ a.a.N.F.B.k.r.a.&.s b.Q A ] ] _ _ ] I P [ X.k :.a.~ ",
"i.p.p.i.i.i.A.E.9Xl | } I v B A C A g g V P h k.r.N.i.N.M.e.N.M.A./.`.Z k.u.N.r.Z.i.e.p.p.S.S p #.W B x x } B h L V h P h z.N.r.",
"Q.F.S.G.A.6X5X!.*Xl c V L C P c L P T J ] r l n.Q.G.C./.G.G.G.rX5X!.*XZ R.R.Q.C.F.S.G./.rX(.#Xv |.n.V L K d c [ v _  .z d c.F.C.",
"~.G.OXOX(.Q.).@X`.e b l z P P _ ` J ` ] ` J b >.h.c.~.Q.(.(.(.(.).).!.n f.a.C.Q.(.m.(._.G.#XOX_ <.%.] J z J ] _ ] ] _ ` r 3.c.h.",
", < o o 8 5 8 8 < # o o o : X # * o . . o # o : 8 8 8 o . o 5 : # , o o o > X o > O : 8 8 8 8 : : > o o o o o . . . $ @ $ $ o 8 ",
"].OX9.%.F.~.d.v.v.x.x.F.).(.@XL.L.+XU.m.U.=X+X{.b.5.[..XJ ] ] v z z _ v _ _ v  .} 0 U.OXv.z.z.&.f.F.).@X+X+X} +X{.U.U.'.$X$X6.7.",
"Q./.>.Q B.V.Z.B.V.B.k.B.B.E.F.~.U.@X!.=XiXtX~.n.!.).x.I.V A V Z V A V V V Y Q Z B i F.V.S.k.B.h.x.S.C.Q.5XY.$.*X^.^.^.x.x.n.^.Y.",
"x./.j.:.Z.N.A.S.<X_.S.B.l.C.@X+Xb.qX@XQ.x.^./.C.Q.x.Q.I.m Y Z n Z M W Q Z D Z Z Z i G.Z.i.2XF.Q.C.k.C.S.1XI.| *X*X`.x.g.V.Q.).n.",
"+X*X8.#.Q.3Xx.Q.x.Q.yXqX).).!.*X3.eXeXhX+XI.=X%X=X$X+X+XL P Y U U A U Y #.%.Y Y T 0 U.Q./.C./.x.g.C.3XS.C.Y.[ eX*X-X*X!.*X=X=X@X",
"O.O.G H -.| $.| X.| X.o.=.>.-.| ` 1.7.-.>.<.2.<.o.o.o.o.9 l l d s k e k v k k k d % <.=.#.$.| [  .T P $.$.} e 1.6.1.;.-.+.3.-.o.",
"c [ P | | ! Y Y T w J H P d c e [ I [ | ] o.7 | { [ L P P  .-.} Y | | d }  .x P I [ | -.T Y $.w [ | T P } } L J { { | | l [ } [ ",
"^.U.eXU.;X!.g.(.`.c 7.[.Y.K.! ,.=.T.4.4.K.5.7 %.>.Q.~.=X@X).@X(.&.+X+XV >.h.~.!.wXQ.$X).Q./ ~.v >.v.L.,.4.6.$.P.4.v.4.3.v $.d.m.",
")./.).R.J.g./.R.R.c 4.;.K.$X^.E ^.I.v.>.v.1.7 / / x.).k.z.z.w.x./.z.~.Z &.w.~./.l.l.l.w.C.Q.f.B :.h.>.+XK.,.^.K.K.I.v.3.v #.a.d.",
"/ y.l.f./ Q./.B.f.V 4.,.:.K.$XY.! v.h.m h J q ^ W ~ f./ k.^ k.t.F.R.j.Z ~ D ~ s.w.u.q.y./ (.j.x T Y U x T j.K.:.>.>.#.} z #.D W ",
"U ( / :.x.I.k.g.`.H Y.U.Y Y 8.P.| c n a < l 5 Z W U W a./ z.z.~.z.U.*Xm Z M W W / ( l.l.!.h.^.L 3.I Y m L ! T U N g 2 s t Y ~ Z ",
"l G z y ` k 6 e q q r l l t ' y q l z l v z y z b k z l q G K e 0 e w f c c f H H 6 J G 0 e l v l l H ' c v & z t t G z t z G e ",
"F.h.j.X.K.o._ { +.+.1.8.7.7.5.+.K {.n.n.n.a.x.n.@Xn.h.n.c }.5.%.P | } ;.F.).x.f.,.z [.-.| Y.!.B.k.5XqXwX5XQ.d Q.J.x.I.Q.n.n.).).",
"h.h.3.-.L.=.E } I | ;.K.6.K.;.O.L ^.!.d.d.&.^ / W h.n.v.v Y.>.,.:.&.h.a.Z w.&.v.j.c +X4.#.f.h./ t.k.V.v.x.'.d n.I.f.:.~.Q.n.&.a.",
":.U.4.{ ;.T H f L X.=.;.X.T P +.c h.n.n.&.n.c.&.v.>.n.K.k ;.E T } *.Q Z S &.h.c.v.h =.U Y %.>.&.^ d.H.n.~.^.0 &.h.n.>.m.n.*.U.c.",
"z.h.x.! $.L X.{ _ H H r f d B C x &.~ k.V.C.(.z.k.x.d.H.C v.} } | ] T x &.s.x.z.I.v 4.| } U W f.s.e.M.z.B.(.i ~ t.d.C.C././.F.C.",
"# = - + @ . @ @   . . # . & @   . * 5 * 5 * 5 5 = # * * @ & $ @ & @ @   * * # * * @ @ . . & + @ , # 8 = 8 :   o # 5 5 5 * 7 * * ",
"] [ [ ,. X%X$XY.P.c +X*X).+X$XK.c.f.>.U.x.v.y -.| P I L X.P. X&X}.[.T.{ $.| P ] [ %.P.%X%XP..Xv 4.z.d.>.n.h.>.&.&.m.m.c.} -.| [ ",
"A } =.j.U.K.I.j.Y.j yXqXpXqXG.V.M.M.D.4XM.x.u %.! V Y T ,.!.K.j.U.4.+XI %.Y Y Y Q >.+Xx.v.I.5.U ~.t.z.x.z.C.V.z.x.C.w.k.%.%.Y } ",
"#.:.) U g.l.J.x.g.h g.y.B.qXqX).x.k.<XG.D.(.r c U T | :.! ! I.x.n.h.c.x V P U $.%.&.! n.x.I.4.c uXaXn.@X_.4XB.(.Q.a.^ G.[ B U [ ",
"Q #.:.=.&.K.:.K.Y.c !.R.x.G.2XV.M.0XM.^ G.G.r C P } | >.$.>.:.>.v.n.OXC C V } | -.! >.h.f.K.K.c %X~.eXm.~.z./.0Xs.G.H.@X| v V P ",
"s s w j s h h h h # L Z m h U V T Y N U V #.. 6 0 9 p 9 d x j d d x v # 9 9 s 0 0 h x h d d x * | } %.} C x #.V n Z Z Q t e 5 0 ",
".X}.[.] [.6.7.[.7.9.1.>.-.L.7.7.O.oX X,X.XU..X%X|.|.}.|.{ +.[.L.L.].]..X.X%X.X|.}.v 5.].5.-.:.<.3.%.>.4.5.9.` .X.XoX&XY.XXXX#X|.",
"}.`..X..5.L.).n. X5.5.c.>.h.v.7.| iXfXxXxXfX%X&XuX-X:XfX5.].v.8.7.+X^. X-X-X-X>X:X[ v.4.U.x.h.:.I.I.U.$X$X[.F :XsXgXcXfX:X=XuX=X",
"k.u.^.=.I.^.B.x.:Xj.~.@X0Xz.w.v.$.B.R.l.(.x.5XrXqX).k./.-.v.g.>XK.) l.@XwXqXQ.h.).L x.x./.C.!.Q.f.l.R.^.Q.`.{ ^.x.).^.C.E./.2Xp.",
"I.B.}.| +XI.h.@XL.h.z.G.(.C.C.I.! l.u.q.w.B.f.h.j.h.j.U.o.v.U.sX,.h.:.x.n.x.:.x.^.I K.K.v.x.).eX=XQ.f.Y.x.I.7.T.g.( f.~.!.B./ t.",
"v.f.;.L v.L.>.2.+.2.3.-.b.%.-.<.} 4.,.I.,.v.>.=.>.h.I.3.` +.4.{ -.1.1.3.%.>.v.n.:.b ;.,.;.4.:XdXoX:X|.oX$XXXF @.;.h.>.4.:.#.a.f.",
"e s k l d Y v c c = t  .b b r r 7 q e q e 7 o 9 9 d k p { ] h c c G K e 9 9 d d p c k d f d e + J v b u J q ; - 0 l [ u % 7 9 i ",
"f.e.u.B.p.u.B._.Q.| 7.G -.-.%.Y V } I }  .] p t.t.t.r.p.f.F.A.k.p.).^.U w.q.r.t.u.N.p.p.e.w.! f 4.W B C V :.o.I v.:.=.| s f.w.q.",
"z.B.k.r.r.p.B.W.rXh O.| | m ! B C s 9 x B P B B.y.k.B.N.r.r.p.u.A._.wXM x.g.l.z.B.r.u.k.k.A.N w X.W U V ,.x.:.l.x.x.g.| k j.k.u.",
"S.A.A.S.A.7X6X1X9Xc v ] P Y U v v I P ] x 0 V B.S._.B.<XA.A.A.8X6X/.5XM R.R.E.C.<XS.S.1XrX2X0Xv }.c.P V } %.Q T ! n.U.x i n.G.G.",
"G.C.3X/././._.).).t b z J I {  .{ _ { | J J p w.k.H.(./._.3X_.W.!.@X).n / y.B.E./.(.4X/.2X0X{.J -.$.P v l J | [ c ] A P p &.a.a.",
"h d j e I c w w , - = r e e 6 r 6 , 9 6 d e w j h a p h f c P c d w 0 0 x h d h d s H H d 9 w $ q i d w 6 q # , # < 9 e e j j g ",
"K.6.7.O.0.o.` ..+.+.<.7.P.5.7.%.] Y.I.v.n.I.j.Y.Y.T.K.7.b [.8.{  .<.| L.U.#XU.4.5.z .X2._ | =.T I.wX@XwX=X}.d Y.L.v.n.U.;.U.^.+X"
};
